<mxfile host="app.diagrams.net" modified="2021-11-15T18:11:53.156Z" agent="5.0 (Macintosh)" etag="EkgDP67LQuwCCh9tWDYa" version="14.9.6" type="github">
  <diagram id="MNUqCONsUpe-TebcX_Py" name="Page-1">
    <mxGraphModel dx="2066" dy="1152" grid="1" gridSize="10" guides="1" tooltips="1" connect="1" arrows="1" fold="1" page="1" pageScale="1" pageWidth="850" pageHeight="1100" math="0" shadow="0">
      <root>
        <mxCell id="0" />
        <mxCell id="1" parent="0" />
        <mxCell id="t5AtAjVldFoCVjbBlI82-1" value="Prometheus Alert Manager" style="shape=image;verticalLabelPosition=bottom;labelBackgroundColor=#ffffff;verticalAlign=top;aspect=fixed;imageAspect=0;image=https://cdn.iconscout.com/icon/free/png-256/prometheus-282488.png;" parent="1" vertex="1">
          <mxGeometry x="570" y="230" width="80" height="80" as="geometry" />
        </mxCell>
        <mxCell id="t5AtAjVldFoCVjbBlI82-2" value="" style="rounded=0;whiteSpace=wrap;html=1;fillColor=none;" parent="1" vertex="1">
          <mxGeometry x="490" y="50" width="250" height="840" as="geometry" />
        </mxCell>
        <mxCell id="t5AtAjVldFoCVjbBlI82-5" value="Jaeger" style="shape=image;verticalLabelPosition=bottom;labelBackgroundColor=#ffffff;verticalAlign=top;aspect=fixed;imageAspect=0;image=data:image/png,iVBORw0KGgoAAAANSUhEUgAAAOEAAADhCAMAAAAJbSJIAAAA/FBMVEX///9nz+NkjBrfyqMjHyBbzOHeyJ9fzeJZhQBchwAAAADeyaD7/v7k9vpWgwDdxpty0uXw+vz69/GI2Ojl1LWR2+p41Oa55/HT8Pbr+PvgzKf17+Tv5NGf3+z8+vby9e3L7fSv5O/t4s2luoWSrGrK1rjp7uHz693p2sDO7vW05fAbAADW38im4e6uwZPT3cRyljSZsXUaFRYgEhG5yaJ5m0Hs8OTBz6uBoE9IewCLp1+AoE0mIiNYVlZGgIwoLjFVpLRylTbt7e2OjY16eHje3t5JRkfDw8Oko6MUDg86Nzh1c3S0s7OZmJnk5OQyTFNfu807Y2w/b3lLi5l6nNsCAAASxUlEQVR4nO1daXubxhYWkgEhkJCENmtBqyVsy7KUeIudNk3atE2btu69//+/3FlYZmBYJBjL1w/vhyR2hODl7GcOQ6GQI0eOHBRWrcGxL4EvWpLUP/Y1cIUllUq6eeyr4IghIFjSm8e+DH4wIcE3LcOWChlKx74MfhggEZbesKfpI4Jqy//71TEuJnOYrcIKi1Ca+f5rYB3lijKHPmiVMENfxDel4XGuKGtI2M2QrhRT7etvI8lpYhUlHY2JDLKvSm8jPq4chp4ZtkqAZV99K77Vchi6Gc1Q0gtmSS2pb8TRlPxKOtBLEhKs3/P8n2LgV1L0C/zL415ZVnAcqeNJgQQdym8jVjQdQjChmREifYMiHBRWamHlSrD0RoKhKzLVMlt6a+gRlF6jIx2Px8k/bKLY4KlkX1IdB4MYv7pYuJ4XyxBK8XF+v07CVLcIHfXjtbVsxoCeUrShKEq5tn3crGMK9r4+m0lhBAN11FEx3tVcekWPJ6A5v44QZr8khRHU/WXUcbFRgvwcmuXy7WYdclw/hB7Q0FeVcC+35TB+NsuasrtmKWwIP7U1KDRfUaDY1KL52aJUnm7u/IeGOJl+qy+9nq6i+RAjQFKUtzRJU2czhGb4atozy2KoBbJF+XTvqWvT72ZUSdIlCUTFQLvmaDhLoqE0yuXFtX30gGYoSdaqaTYHQ5DZHJUVgfn+BJEgld0SHr4iGaqqV0cMXkvje5HYBAMka7dnoJCHKukIsPVaWBF42ssE/ajtCtas2RzaBJHhVUcdWTa62rGZ2bhNRRAAf43Zd1znqSHKAoAsnB6VmA1zm5bg1lZL4FERwa4ouHgFUjT3ixIMlN3QaKEc9IogKI+OSA0jvQSVjftlAxgbSIKCIDaOxw0jNcGi4n2ZaboqKosyNsXJ0ahhpPOiiOCc+sIqIii2J9XelfwK1PQxNcFibUl9IxJgvYr+3YAUO8fg5WJ3cKAnZEh940gmHegU/vTytDzcHJSq+fBEfiPSUREEwcaoDtSzJx43XlxnQVBZkF/ZgZY3BUyBmxG1Qk8+KsO7DFSUihWFwgTKTNYKp/bf0+My3GZBsFgjGToxvo7cDRbp8RjO07tRWD7tCFfahSITqwUcJtrYKuvuf5t367Ob+W6xmN/v0Ww+GHfpjVCpFW+oQglnMVhHBblbMAQnWpjrm8VWKZcVjHLtBRiepbVCpbbwtRYnKFIYmBjwqMiTAlEWrj9DbsSx5Tn7ojLFfSolVWqf7S5N05sjRdYnX/XsvBSLVL6ATVj66PIi9LJeB0OlrMxt61u1dLdn37OVs4MJjtpuXurLnEDF/JoZAnqOdjZnqlTyFrTbmFlHoADDP+21a/cvQvAwhpCe0/JetZzOjNRaNUEWIwosyIXCmDT58nYZfWFHZAhc587tHlqwF+o212BlfyEzGRrA0ZSJ79hEXtXxGAJHv904N7856/sWmuAoaZ0tQsrRlJ+4CrAx7ciCMbF/Sh4tFCi8MydGD6y+HmhwW05dGACI/4Vb94v4WmAXt79Eu3ZL1uMGsisu7t0bv7JU1jIhHEO4YispqJ3Mmq2gO7591Kl7j8UJ/Hn5UCtHKSpMPMoP8zO3y2RC18JaYlJR555NECapWFtqj5w9zDmhRGIX/269eSjWUCJFEkPUireLm2tvdclcWSU2PbhEAVfPXCWVMURRRH/1CoUF+PrabdjSamagjePc/f14fb/ZPX4uYp7b28fd/P56SSbGgF0/hF0JxMMhVj2gpJBVvT2adifn5z2A8/PJBNxLUynWttcF3ujRfgDafyHeKszB0CrpoQv0ku5lbIZsXPSYjcObD5/583ODlQgb7RCwpJmVrFXY0lATcGtBcmEDJEB86gwv7mKBh1WB4xeQHwRuEHXATe5ha7kCvwTKJ+lqy7Jmw9VqMBisAIYzCy5MSxHcsPU54rsmQ9zYLgAfnwAeFovF7gz9r8a/LYwYyug+N1w9tRf9QAAgoUZSw/T6tvWZN8UPrgtZPsAxI1wA2nH0FsuvK/BfoYEMoeeG9ofdHixMQ0dEoujpfVs7C+tdWSHS6DEdYUH9uLT5wZPzpgjtEGqm2LF/QFFxED5fECa9kmXTu7vZ1pRimUwz6VRhh4KN1rUtX+CsqKit1y5oogwyYbdRFD6JxoAKpWcbn3n/gCanqFbi2AurZWWD/I82ld1MgHPvG5c2QIZIkqjdIHcDAwZRwpNaQ1t65tmjPRimUN1gN9OtbbHqNq5EItOB7QyegHUpSDDq6E+cYkEhJrFECQnPdOgtFCfbU7bUKRzze8K+p9oW6UyOyDN4ANmeUYCdBadTCy1xFS1E6Gb7s5UTNMf3j1QyS/UE0SqW213sdcRApipz7ZyiDp/Ygx1NYIqeOw0xRBWFkL419GbSlptbumGmUFNR87JnfoVunVVLcV5owy0+5HFA5l13YuKshMI7BV3ttwA3L90xlzePZf9QZpmqFW5qSu3hDP2zcSWHVFIi15CBM9OOfaaR7Nl+E2QzQxsgt2k2qUxuvN48KbXgTGaNKhbOPjjtt4D5kULk62zILkO9KycwjDFsVIdUkbUz8pProh34Jx12qf8iQpwEzi3KVXbGPF5e38yfir5GNUWQ7kdg8Z2GqqcrRL6W6GsViZ0Jurjy7eNit7kB2Gw2O5A0b5VaLZwbiyBCzwhXT48iN3e6vqZrRFls43bNeKMUFQpRzEIJNi6ESPV0z9vlw2/5UIODWYYnP5vf8vbDAUtQAYK9CO/iA5/cDU7fw6Vapysttj2DX8+3jNn8aIKUkwG5dT0xPz6+xp79LY+doqJT9X1gU4zsutlQ0BMmQKXpntJ0D3oCFzVd22qoPBZgdioLE9aH5kpcg1jZLMfLDShq6eXbaSLzI2BkTdBbFaldw9xtFOLMzLOn6PYpTtHufE2X7r4E4YRGtiAeMFBAroLK0Bt2++kuQltr7Hbn/gQFOesKw1y4jsQuV5efP4R2n6+90ojGE/PjBxDkEfSX0Fuiy67dFNDIuhKxBgvL2yBJ9ro7skFZFIVOpw573Mko1llflRZ3Z/OHYrlW/rBeFqFd+vy9n+T1/DN6NG+L/gI6sH1kKSmcIxU70yo2LK16kSSp4TlwCpLN+81i8QSq8NqHXcwyyfj6DK6njc/W67HJNtu26CYODk5HCdT2RQZOzfHdchl4dGkvaIYsGsHo3WjHcjz2wCkDWqM6GfnCWBXYHzt2B0uYFzFE4gLOq6eNRiN5UKqKeKGsQx5yIQpyNeyA4xkiRE/EK3vwVkJ0ELpR53S9h/N4yOkUZEZiGEFn2SBCTXvZcqLRYZ9TbIeeVRO9Txmj6VUb5dli1FWGLOm73zPlQMxByMwLVB1hys76qZVH2S7i4YRFBGJskWf3uxsRsICIJgzzNFifjbtG5kHemTj2TaPPDEn6TZI5YhFhhBin0f2ouMMPh5agkQKyFG+1umcwj4ivgNpRZ+LVyigEVvNDSYqCMbqajtpy+BRQDKKdDb+2acjoGeYFw4iXPstyRGcwwanYM2B7fMFhGIVdNDDAi/MqQK/bjm2aoRmAOEyj1JRfzGdHQ1AgUM96xjU+E9WwkQbBL+YzL1yuB853Gpk/J2qXRXpTbjGf6UpF5tl6URabKJxFqkHm7SgbrIwmLP1q1FM5mhiGvFwNi2G4xnVCr9H3wS9fWIdHMuS1BhVkGBnZQvwSzVD7+WOlcvJLkGR6Z3UAAgyjZwcaIRcpE77+y8fKCcC3ylf/0dEMObkaP8O4fkJIiUCq2K/vThDevfMdG52Z8nI1fl8a6xTZiTrRSvqtcmKj8jt96Hm0p5EzJ4dBnzU+AWZnl4Tof/nmMHz3A31o2Ni3DV5ZjY9h/AEhLQH3/3945zL8gz4ykl9MjyAFqHQ4SVdvwpSEd3l/ejL8lTowroqJaRIcDMquktzGkILS9RO/u3b47efwM7HAqYCiaotExs5WU/fmaK6WVqiIGNOLErg1Tak2TaJ+UEi95V7fbxXMsfKdOiy6OkQ3iU+vhsynk80nhbSuvBLx6x8VgI+/UUfFOFLEkE+vhlSeZGlFWFgjsqGv37/T/BI09rn1akjHkcybhfrECD+VqBvEa32GcBx+Gf79/a/vf+9xtfjpKQaSSFDg1hZuEwzpbsuflcq3SuVPv/1HJF8iu12TZAkRnZ8PQ9JxUMnvHzh0f/NlJtHdOSGoqT0h3snYN4hP3kYqHRmRfnYid4UO3NGdXWf4z0XM7CV9LJ+8jayfiJuouanJSYXW07jrlOV2t9rQNLiK2o6bvaSP5NT4Zp/iK8GQKmXjcxPUIheF5KMY7mGcnCnhaghv9hvBkIptCUL3weDkTElX46UVf4fJ0Pv0Tz/+8+nju/ef/vnxOSOGnJwppXZe3vaHm0F/ZN2P538vL9/jj7x7f/lvNgx59duoc7juzFVTSkmdFOjfy/cnBN5/yoQhr9Z+mzqL++vfUY3wrvIX+Vm8ePh8QvEDuPwxE4acnClVLBD1xdcfvlW+/UAZ4QXS6Gc/P3Aj/vFW9FMw5ORM6Y4imXmZX+jpLju//CfI8P1/hPZo1G4bdWfrwIPAa2CBLk7F0BvpbH94GSB4cvnsqnfj/GqfKW8anBj6li5lg11sOwn0c5Dh5Y905VVNmmz7wKuj6E9TZJZPq3orT5+CBAMblDXYAw1xDHmtkwbPZPhORS2Q/kQL8fLkJ5wqzOBT7u7mC1cHiJHbSAYjExPrF1VHLKddX4Hw/MkJhyDaf/qvva3GWFfhM4q6at2FfWsswyTzAIeAWbbLolA32u12R6D8Bvh1B4jx30/vAT7ijA0V95r7eK2q95Eg49trAfBaCY6oiHxyEIUp0Edsks/PNmU8Ntsin67VoRhjlmKY4MUwdObEx6+DzbPREWVnSxbZnmG06MeHVS3RvFXgDLzm25L1wogJjepkOhqNrrrnztB6y/d8tAS3uA5dMg5nyG2+LcnJ7U6cybjNy5L/8Wj0Pq59GYLKecKLYbzfs0PVXct2Ix60VSu41QSS4Z6uRhyxt7PJBLG9CUzwrq8DYemtlalBSWpa825oMbfjgXYYPpzLgmzw3SYj5najgKdZurvrQKkPgLYfYD6+r0MljRrODRLERY05GAyaXDYAi+qCCjjpD3iTUKj4bUf7KSmkNyuhnQB0vTXMnGW0RiEdDSHo35wAwEKWGjmL6AfM15qEvkvZv5YteokWfOCOsXMN2nEJb0wwm1kAs9lw2cTONuFihXMPq/6NY6RSxq9MYq/P24DJVGDjGlXqz8I3/93zMT0Y6v0nyPj1gVEJCPICvl1dVGLfsiB6ezTzMcMG4xVYGVOMytwgwxatn5YrPg3D/em0N2XuYxLNsBpI/ErE22czQVTmBl3pkDi/G/UhrwZmCKNZve6942E/oLopaOjZvsgz6g43yGAhlex3bmFaDY/s/sw8ig3GS7AyftFlREhEdxgEfAnWuPrMzrZtxcyGIdITBsXM9HQVHRJxzm8OrVbL3ppN8xJwzSV6WP8JA7mzwGZqalYv+GqpheiQ6H+20CaoOdzQn0lW3mIoDv1SzMjZgOx5QG9oGgD1fKjmCM4WHzBISDNhIR16iqtCMOxmY4krHb8EPHqIt24/4qVN6tMCJT4b6UQo4H5P4KWCWbyS1USbjJuxVaIs1g3DgA1ttOWhHSEmztfEPSiaANCh+t/OmoWvQYoBi/KYOWUSrp/R7EZUY69aKYxh277fJMP0r4O035wNtSF2QtJF3aFowAaVYTB2mzsEMPD6LDEDQ7STJZgERqbfNGT0dGkv4imTQwDHsnyb/mUQL+xbFu9rfBcjd4xkO0Htg07A16Rn6N6yBL6GP4I1RnqGlqP2e/oaTgx7xBV5upUKntbv52v4AHYz6HiR+s2zRLIbm9e8BMOR39VIactgIhFE+nBcgmh6kK4wpJQEKaWHvmavDhkH+Bs26cMh2ZyAvma/RjUHhr6mm566cUp5Zuhr2vFXwRPQ1RCWk8ErvANWnWwPAn5ou3lkyV4dSAc6gUDR9YDF6SxBbiqexUvYfSkS1PosioQUgAOKuJmRTdfbxxCGV+24aoqe1rR0VdKz6bMFSupC6mZEWoZo6mxlDbPqsvkIwnozdTciHbJ+hs2/yTwMGPtPGGSJrIfbLF9vCxXCRxMiGmCZZMvQ/y4ElCUJ9o5sL2KQ7quS6h1jdNHtVbNez/dpqYqyJK1R7U26V6N2py54r2qS05N2J43wVwqQ1dVF97x3qvEaFoLNUlKELA+mnVYB4Um3e3E1GrUNo9PpoFUmvAdRPOBtgVvdGUZ7BPl0J71q9XSPXf5Sgli2k/r7uWjYMm2cVtk4BYC7FWr8pJMUFn7znSqlLqdfLZoWjBmt9Flujhw5cuTIkSNHjhw5cuTIkSNHjhw5cuTIkSNHjhw5cuTIkSNHjhyvGP8DxfyDNLchjwcAAAAASUVORK5CYII=;" parent="1" vertex="1">
          <mxGeometry x="575" y="360" width="90" height="90" as="geometry" />
        </mxCell>
        <mxCell id="t5AtAjVldFoCVjbBlI82-6" value="Loki" style="shape=image;verticalLabelPosition=bottom;labelBackgroundColor=#ffffff;verticalAlign=top;aspect=fixed;imageAspect=0;image=https://img.linuxfr.org/img/68747470733a2f2f67726166616e612e636f6d2f7374617469632f696d672f646f63732f6c6f676f732f69636f6e5f6c6f6b692e737667/icon_loki.svg;" parent="1" vertex="1">
          <mxGeometry x="586" y="510.99999999999994" width="64" height="77.09" as="geometry" />
        </mxCell>
        <mxCell id="t5AtAjVldFoCVjbBlI82-7" value="Prometheus Server" style="shape=image;verticalLabelPosition=bottom;labelBackgroundColor=#ffffff;verticalAlign=top;aspect=fixed;imageAspect=0;image=https://cdn.iconscout.com/icon/free/png-256/prometheus-282488.png;" parent="1" vertex="1">
          <mxGeometry x="570" y="100" width="80" height="80" as="geometry" />
        </mxCell>
        <mxCell id="t5AtAjVldFoCVjbBlI82-9" value="Cluster Manager" style="whiteSpace=wrap;html=1;aspect=fixed;fillColor=#dae8fc;strokeColor=#6c8ebf;" parent="1" vertex="1">
          <mxGeometry x="575" y="760" width="80" height="80" as="geometry" />
        </mxCell>
        <mxCell id="t5AtAjVldFoCVjbBlI82-10" value="Couchbase Observability Stack (CMOS)" style="text;html=1;strokeColor=none;fillColor=none;align=center;verticalAlign=middle;whiteSpace=wrap;rounded=0;fontSize=15;" parent="1" vertex="1">
          <mxGeometry x="480" y="30" width="280" height="20" as="geometry" />
        </mxCell>
        <mxCell id="R16O8NXebToeCa1PSR8T-3" value="" style="shape=image;verticalLabelPosition=bottom;labelBackgroundColor=#ffffff;verticalAlign=top;aspect=fixed;imageAspect=0;image=https://raw.githubusercontent.com/grafana/grafana/main/docs/logo-horizontal.png;" vertex="1" parent="1">
          <mxGeometry x="509.25" y="660" width="211.5" height="50" as="geometry" />
        </mxCell>
        <mxCell id="R16O8NXebToeCa1PSR8T-4" style="edgeStyle=orthogonalEdgeStyle;rounded=0;orthogonalLoop=1;jettySize=auto;html=1;exitX=0.5;exitY=1;exitDx=0;exitDy=0;" edge="1" parent="1" source="t5AtAjVldFoCVjbBlI82-2" target="t5AtAjVldFoCVjbBlI82-2">
          <mxGeometry relative="1" as="geometry" />
        </mxCell>
      </root>
    </mxGraphModel>
  </diagram>
</mxfile>
